<?xml version="1.0" encoding="UTF-8"?>
<svg version="1.1" xmlns="http://www.w3.org/2000/svg" width="256" height="256">
<path d="M0 0 C6.80760464 4.01445124 11.01084065 9.40208411 13.4375 16.9375 C13.93517517 20.26509278 14.24155499 23.57940796 14.4375 26.9375 C15.4275 26.6075 16.4175 26.2775 17.4375 25.9375 C26.49542866 25.11298114 33.93716559 25.46764286 41.4375 30.9375 C46.58633131 35.44136094 49.75356355 41.12850088 50.72530174 47.96113586 C50.84161613 50.07242289 50.87403755 52.16678079 50.86987305 54.28125 C50.88516052 55.46806114 50.88516052 55.46806114 50.90075684 56.67884827 C50.9306831 59.26513944 50.94012123 61.85105905 50.94921875 64.4375 C50.96608059 66.24211844 50.98423285 68.04672524 51.00361633 69.85131836 C51.05095907 74.57928836 51.08086991 79.30721116 51.10705566 84.03533936 C51.13694083 88.86870644 51.18344371 93.70191115 51.22851562 98.53515625 C51.31436966 108.00251895 51.38179426 117.46991524 51.4375 126.9375 C52.04535843 126.52005524 52.65321686 126.10261047 53.27949524 125.67251587 C54.08227402 125.12783661 54.8850528 124.58315735 55.7121582 124.02197266 C56.90238335 123.21018051 56.90238335 123.21018051 58.11665344 122.38198853 C65.93470095 117.51605722 76.54228656 117.67366863 85.31640625 119.5546875 C92.90607038 122.23898186 99.22409019 127.34070906 103.4375 134.1875 C105.88853741 140.92785287 106.69193441 147.49701153 104 154.3125 C99.91927523 162.54529089 93.20139762 169.14959795 87 175.8125 C81.90123 181.2914724 77.33736483 187.10497521 72.84326172 193.0859375 C70.74597231 195.84832772 68.60041771 198.57227769 66.45996094 201.30126953 C60.20358391 209.28288992 54.10756165 217.36623571 48.14355469 225.56884766 C45.0418581 229.82241912 41.85913761 233.93603181 38.4375 237.9375 C38.9325 238.4325 39.4275 238.9275 39.9375 239.4375 C41.96420246 242.81533744 42.39221636 246.08856474 41.4375 249.9375 C39.38967321 252.46065472 38.18632397 253.78551406 34.9574585 254.44086456 C34.02242493 254.44237267 33.08739136 254.44388077 32.12402344 254.44543457 C30.50892883 254.46235352 30.50892883 254.46235352 28.86120605 254.47961426 C27.09686218 254.46746887 27.09686218 254.46746887 25.296875 254.45507812 C23.43295105 254.46559204 23.43295105 254.46559204 21.53137207 254.47631836 C18.12614814 254.49090873 14.72189618 254.48748748 11.31672668 254.47480202 C7.75247902 254.46467116 4.18827274 254.47406792 0.62402344 254.48034668 C-5.36140394 254.48762288 -11.34663386 254.47803627 -17.33203125 254.45898438 C-24.25088958 254.43721546 -31.16927642 254.44426687 -38.08812332 254.46629 C-44.02965962 254.48444495 -49.97105402 254.48700193 -55.9126091 254.47653532 C-59.46073891 254.47030082 -63.00864714 254.46946329 -66.5567627 254.48268127 C-70.51198641 254.49638678 -74.46668248 254.47738835 -78.421875 254.45507812 C-79.59810425 254.46317505 -80.7743335 254.47127197 -81.98620605 254.47961426 C-83.06293579 254.46833496 -84.13966553 254.45705566 -85.24902344 254.44543457 C-86.18405701 254.44392647 -87.11909058 254.44241837 -88.0824585 254.44086456 C-91.33166297 253.78138593 -92.51301841 252.49189837 -94.5625 249.9375 C-95.70945938 246.34369396 -95.878823 244.67003748 -94.375 241.1875 C-92.12349276 238.39252549 -90.15999337 237.13366943 -86.56773949 236.69254684 C-85.86172915 236.694809 -85.1557188 236.69707115 -84.42831421 236.69940186 C-83.61268005 236.69690933 -82.7970459 236.69441681 -81.95669556 236.69184875 C-80.62727432 236.70274788 -80.62727432 236.70274788 -79.27099609 236.71386719 C-78.330625 236.71345932 -77.39025391 236.71305145 -76.42138672 236.71263123 C-74.37959814 236.71243373 -72.33780578 236.71647201 -70.29603195 236.72423553 C-67.0583599 236.73446211 -63.82107281 236.72907586 -60.58340454 236.71881104 C-51.37796317 236.69084475 -42.17273648 236.67827793 -32.96728516 236.70751953 C-27.33439018 236.72429153 -21.70218184 236.71186286 -16.06935501 236.68106842 C-13.92848624 236.67498139 -11.78755641 236.67978775 -9.64673996 236.69594574 C6.02500491 237.16381587 6.02500491 237.16381587 19.4375 229.9375 C20.16876602 229.3643959 20.90003204 228.79129181 21.65345764 228.20082092 C26.83777061 224.09603422 30.58295136 219.11806316 34.375 213.75 C35.59864387 212.05446051 36.82260167 210.35914754 38.046875 208.6640625 C38.63017578 207.84969727 39.21347656 207.03533203 39.81445312 206.19628906 C50.94580191 190.70482713 62.70411025 175.28941453 75.625 161.25 C82.94203871 153.87321366 82.94203871 153.87321366 87.125 144.6875 C86.1980115 140.97954598 84.62378483 139.93819048 81.4375 137.9375 C76.50571274 136.29357091 72.32830377 136.26930264 67.63354492 138.53833008 C63.14489523 140.88243648 59.94282207 143.98357218 56.48828125 147.63671875 C55.8677739 148.27237259 55.24726654 148.90802643 54.60795593 149.5629425 C52.64522435 151.57413545 50.69614228 153.59775841 48.75 155.625 C46.17434032 158.3071207 43.58565939 160.9756444 40.98828125 163.63671875 C40.40484451 164.25334885 39.82140778 164.86997894 39.22029114 165.5052948 C34.02741412 170.82193191 34.02741412 170.82193191 29.4375 170.9375 C26.2734375 170.16015625 26.2734375 170.16015625 22.8125 169 C12.04980567 165.77904768 3.64881264 165.9890681 -6.5625 170.9375 C-7.89783009 171.9348321 -9.23158517 172.93428342 -10.5625 173.9375 C-11.2225 173.9375 -11.8825 173.9375 -12.5625 173.9375 C-13.25024405 175.26008472 -13.90961373 176.59736503 -14.5625 177.9375 C-15.0575 178.9275 -15.5525 179.9175 -16.0625 180.9375 C-17.9150767 185.18644457 -18.32880025 189.59207351 -18.83984375 194.16796875 C-19.71750549 197.53154805 -20.81443098 198.84326493 -23.5625 200.9375 C-27.30640967 201.86616509 -30.62697074 201.44124653 -34 199.625 C-37.06948017 196.30996142 -36.77964292 192.64739688 -36.7109375 188.39453125 C-35.99553411 176.55272245 -30.92626927 167.30464941 -22.37890625 159.203125 C-12.3586848 151.14247529 -1.54909035 148.57981248 11 148.75 C11.90685547 148.75064453 12.81371094 148.75128906 13.74804688 148.75195312 C17.76894603 148.7781954 21.37616501 148.92552771 25.33984375 149.69921875 C28.43279128 150.25323898 28.43279128 150.25323898 30.60073853 148.52758789 C33.32102572 144.69160645 32.98224859 141.33115739 32.92333984 136.734375 C32.92903488 135.33862244 32.92903488 135.33862244 32.93484497 133.91467285 C32.94225489 130.83860578 32.92086149 127.76348315 32.8984375 124.6875 C32.89605323 122.55045686 32.89514772 120.4134116 32.8956604 118.27636719 C32.89253162 113.79739258 32.87596013 109.31873788 32.84912109 104.83984375 C32.81514133 99.09624619 32.8074925 93.35300027 32.80901146 87.60931396 C32.8084678 83.19641762 32.79750127 78.78359828 32.78300858 74.37072754 C32.7766406 72.25281355 32.77270168 70.13489082 32.77122116 68.01696777 C32.76688821 65.05803546 32.74938708 62.09947705 32.72802734 59.140625 C32.7293869 57.82511658 32.7293869 57.82511658 32.73077393 56.48303223 C32.71797897 55.27181702 32.71797897 55.27181702 32.70492554 54.03613281 C32.699898 52.98755096 32.699898 52.98755096 32.69476891 51.91778564 C32.3846277 49.53052406 31.71427663 47.9755203 30.4375 45.9375 C26.94945905 43.61213937 25.53609246 43.60292102 21.4375 43.9375 C18.89006437 44.78664521 17.79794082 45.37808203 16.34231567 47.63726807 C15.19829328 50.54561385 15.19753444 52.8658341 15.21044922 55.99121094 C15.21060028 57.21217468 15.21075134 58.43313843 15.21090698 59.69110107 C15.22122955 61.00475647 15.23155212 62.31841187 15.2421875 63.671875 C15.24591958 65.03379102 15.24876563 66.39570973 15.25076294 67.75762939 C15.25838406 71.33497586 15.27801931 74.91215885 15.3001709 78.48944092 C15.32066222 82.1426777 15.32977167 85.79594101 15.33984375 89.44921875 C15.36126678 96.61205353 15.39538418 103.77475383 15.4375 110.9375 C15.99034668 111.18636963 16.54319336 111.43523926 17.11279297 111.69165039 C17.83611816 112.03188232 18.55944336 112.37211426 19.3046875 112.72265625 C20.02253418 113.05402588 20.74038086 113.38539551 21.47998047 113.72680664 C24.9238079 115.85675678 25.48417195 118.05609292 26.4375 121.9375 C25.66359198 125.34269529 24.4227924 128.04681481 21.4375 129.9375 C16.15271255 130.6354908 12.18877849 129.64197296 7.125 128.0625 C-17.52121317 120.67914616 -46.42038576 122.66382986 -69.5625 133.9375 C-71.23513405 135.02225237 -72.88544513 136.14305358 -74.5 137.3125 C-77.35667633 139.36068303 -79.33733454 140.38108126 -82.875 140.5625 C-86.5625 139.9375 -86.5625 139.9375 -89 138.375 C-91.16260721 135.00133275 -91.69906507 132.96616969 -91.5625 128.9375 C-88.95807191 124.47145606 -85.23580955 121.14434062 -80.5625 118.9375 C-79.9025 118.9375 -79.2425 118.9375 -78.5625 118.9375 C-78.64696772 110.80950667 -78.74187575 102.68173027 -78.85002708 94.55402088 C-78.89992269 90.77978487 -78.9462531 87.00557593 -78.984375 83.23120117 C-79.02131322 79.58710907 -79.06769591 75.94324724 -79.12056351 72.29935265 C-79.13906221 70.91077409 -79.15418682 69.52214626 -79.16584396 68.13349342 C-79.18278326 66.18500665 -79.2129508 64.2366486 -79.24365234 62.28833008 C-79.25697601 61.1802449 -79.27029968 60.07215973 -79.2840271 58.93049622 C-79.56848131 55.87321357 -80.20075799 53.67857478 -81.5625 50.9375 C-84.92122614 48.32515744 -88.45362621 48.50498697 -92.5625 48.9375 C-95.63437625 50.7405578 -97.25155023 51.77681823 -98.18695545 55.26840401 C-98.55311495 57.87079794 -98.69105502 60.32885309 -98.69621277 62.95553589 C-98.70047775 63.94201614 -98.70474274 64.9284964 -98.70913696 65.94487 C-98.70845718 67.55166374 -98.70845718 67.55166374 -98.70776367 69.19091797 C-98.71112228 70.32822861 -98.7144809 71.46553925 -98.71794128 72.63731384 C-98.72744704 76.40144949 -98.72939469 80.16554059 -98.73046875 83.9296875 C-98.73368329 86.55461648 -98.73704751 89.17954527 -98.74055481 91.80447388 C-98.74694835 97.31398812 -98.74843773 102.82349036 -98.74780273 108.33300781 C-98.74720452 114.66589663 -98.75770625 120.99869956 -98.7735464 127.33156669 C-98.78830564 133.45417739 -98.79178775 139.57674761 -98.79119301 145.69937515 C-98.79236642 148.28827386 -98.79675198 150.87717333 -98.80452538 153.46606064 C-98.8697738 177.45645853 -98.69670996 199.22545744 -83.00390625 218.890625 C-80.57962188 221.93986653 -79.21329406 224.25726775 -79 228.125 C-79.5625 231.9375 -79.5625 231.9375 -81.0625 234.4375 C-83.89365683 236.1361941 -86.18034159 236.4165114 -89.46484375 236.46875 C-97.17020033 234.51730029 -101.6943519 225.32436007 -105.5625 218.9375 C-113.73691798 203.95706882 -116.70152057 189.03533729 -116.73950195 172.20019531 C-116.74607315 170.92937103 -116.75264435 169.65854675 -116.75941467 168.34921265 C-116.78032968 164.15469599 -116.79080381 159.96017949 -116.80078125 155.765625 C-116.80483321 154.3149692 -116.80895026 152.86431358 -116.81313133 151.41365814 C-116.83215377 144.59690238 -116.84639209 137.78015726 -116.8547433 130.9633801 C-116.86451119 123.12226266 -116.89083119 115.28142783 -116.93124419 107.4404099 C-116.96149519 101.36031469 -116.97622056 95.28030013 -116.97952431 89.20013118 C-116.98186408 85.57743786 -116.99068371 81.95504749 -117.01598549 78.33243561 C-117.04379749 74.28557287 -117.03940779 70.23933532 -117.0324707 66.19238281 C-117.04528076 65.00863068 -117.05809082 63.82487854 -117.07128906 62.60525513 C-117.01456222 53.49086765 -115.6153782 44.99656326 -109.375 38 C-103.24686593 32.55131789 -95.76362358 29.76039932 -87.5625 29.9375 C-84.17568796 30.41658686 -80.87785108 31.10001048 -77.5625 31.9375 C-77.48 30.90625 -77.3975 29.875 -77.3125 28.8125 C-75.84930823 21.25267584 -70.75673476 16.19201764 -64.5625 11.9375 C-55.79129191 7.61096133 -46.82219122 8.98098965 -37.5625 10.9375 C-37.13839844 10.40640625 -36.71429688 9.8753125 -36.27734375 9.328125 C-27.23092951 -1.56733655 -13.52149827 -6.28667221 0 0 Z M-22.5625 19.9375 C-23.79533771 23.63601313 -23.69411347 27.04681103 -23.67602539 30.8972168 C-23.67617142 31.70720123 -23.67631744 32.51718567 -23.6764679 33.35171509 C-23.675771 36.03007685 -23.66798903 38.70836913 -23.66015625 41.38671875 C-23.65829128 43.24331118 -23.65686775 45.0999041 -23.65586853 46.95649719 C-23.6520496 51.84405881 -23.64222461 56.73159074 -23.63116455 61.61914062 C-23.62093704 66.60611571 -23.61636803 71.59309558 -23.61132812 76.58007812 C-23.60060181 86.36590057 -23.58301003 96.15169317 -23.5625 105.9375 C-16.6325 106.2675 -9.7025 106.5975 -2.5625 106.9375 C-2.51723513 96.64496457 -2.48057572 86.35249574 -2.45887566 76.05988312 C-2.44845839 71.2801187 -2.43433685 66.50042618 -2.41162109 61.72070312 C-2.38981924 57.10415443 -2.37791591 52.48767471 -2.37274551 47.87107849 C-2.36906291 46.11371272 -2.36187181 44.35635053 -2.35103989 42.59901428 C-2.33642726 40.12907891 -2.33452611 37.65942507 -2.33544922 35.18945312 C-2.32825867 34.47015625 -2.32106812 33.75085938 -2.31365967 33.00976562 C-2.33749438 27.07885057 -2.7135583 21.05057623 -6.75 16.4375 C-13.52584676 12.82371506 -17.65049161 14.90853903 -22.5625 19.9375 Z M-60.5625 31.9375 C-61.73358064 35.45074192 -61.69479358 38.60115058 -61.67602539 42.25463867 C-61.67617142 42.99634811 -61.67631744 43.73805756 -61.6764679 44.50224304 C-61.67577134 46.95334805 -61.66799097 49.40437702 -61.66015625 51.85546875 C-61.65829116 53.55511941 -61.65686768 55.25477061 -61.65586853 56.954422 C-61.65205055 61.42769861 -61.64222638 65.90094276 -61.63116455 70.37420654 C-61.62093499 74.93891969 -61.6163676 79.50363807 -61.61132812 84.06835938 C-61.60060349 93.02475385 -61.58353567 101.98112422 -61.5625 110.9375 C-54.50340922 109.81473429 -47.52406852 108.56186599 -40.5625 106.9375 C-40.49285226 97.93156762 -40.43961397 88.92572861 -40.40706348 79.91958523 C-40.39143734 75.73722731 -40.37025523 71.55505427 -40.33618164 67.37280273 C-40.30347877 63.33331051 -40.28562405 59.29399562 -40.27786827 55.25438118 C-40.2723443 53.71666741 -40.26155739 52.17896285 -40.24530983 50.641325 C-40.22338949 48.47999308 -40.22053904 46.31938497 -40.22192383 44.15795898 C-40.21526199 42.92996078 -40.20860016 41.70196259 -40.20173645 40.43675232 C-40.69559012 35.64658268 -42.01982561 31.64546093 -45.3125 28 C-51.90936251 24.88481493 -55.93837064 27.20327232 -60.5625 31.9375 Z " fill="#000000" transform="translate(133.5625,2.0625)"/>
</svg>
