<?xml version="1.0" encoding="UTF-8"?>
<svg version="1.1" xmlns="http://www.w3.org/2000/svg" width="512" height="512">
<path d="M0 0 C0.84569046 -0.0066568 1.69138092 -0.0133136 2.56269836 -0.02017212 C4.34345343 -0.03024047 6.12424579 -0.03499095 7.9050293 -0.03466797 C10.58903338 -0.03902315 13.27136596 -0.07535414 15.95507812 -0.11328125 C36.05729524 -0.24619405 51.9436622 5.78760451 66.5625 19.8828125 C68.92578125 22.3359375 68.92578125 22.3359375 70.92578125 25.3359375 C73.63446865 25.61346616 76.12695601 25.70468184 78.8359375 25.671875 C80.48372765 25.68441992 82.1315141 25.69745834 83.77929688 25.7109375 C86.35894753 25.71481485 88.93821092 25.71122745 91.51782227 25.69628906 C108.74263261 25.63582166 123.45605318 28.44119698 137.92578125 38.3359375 C138.25578125 38.6659375 138.58578125 38.9959375 138.92578125 39.3359375 C141.48762919 39.44699806 144.0269496 39.4976223 146.58984375 39.51171875 C148.20443934 39.534971 149.81902264 39.55909028 151.43359375 39.58398438 C153.96947801 39.61867931 156.50492622 39.64819024 159.04101562 39.66186523 C181.43600494 39.80616285 199.38302311 45.6266313 215.92578125 61.3359375 C219.92578125 65.91690578 219.92578125 65.91690578 219.92578125 68.3359375 C220.47363281 68.28953125 221.02148438 68.243125 221.5859375 68.1953125 C237.32936144 67.47853873 253.19780404 74.17547399 264.93579102 84.46777344 C267.34400722 86.6870134 269.64022018 88.98994946 271.92578125 91.3359375 C272.51746094 91.91859375 273.10914063 92.50125 273.71875 93.1015625 C284.59757659 104.65120145 291.02541176 121.27154056 291.06622314 136.97932434 C291.07067983 137.94294947 291.07067983 137.94294947 291.07522655 138.92604178 C291.08385364 141.06504718 291.08541673 143.20399621 291.08691406 145.34301758 C291.09154679 146.88280353 291.09657206 148.42258833 291.10195923 149.96237183 C291.11504867 154.1386442 291.12152241 158.31490052 291.12596989 162.4911902 C291.12890856 165.10752401 291.13301503 167.72385353 291.13747406 170.34018517 C291.1511451 178.54626151 291.16081148 186.75232791 291.16467595 194.95841485 C291.16914415 204.39210248 291.18663588 213.82564431 291.21567655 223.25928766 C291.23740293 230.57426644 291.24738617 237.88920457 291.24871707 245.20421523 C291.24975807 249.56145609 291.2555127 253.91855985 291.27353668 258.27576637 C291.29020606 262.38559523 291.29208309 266.49518675 291.28339767 270.60503769 C291.28263704 272.09919948 291.28683838 273.59337503 291.29685593 275.08750343 C291.51384415 309.52029705 278.62604469 342.54558585 255.92578125 368.3359375 C255.11496094 369.26792969 254.30414063 370.19992187 253.46875 371.16015625 C247.42802113 378.00111091 247.42802113 378.00111091 243.92578125 380.3359375 C243.48084157 382.42281712 243.48084157 382.42281712 243.56742859 384.875 C243.5635614 385.83092545 243.55969421 386.78685089 243.55570984 387.77174377 C243.5665712 388.8241777 243.57743256 389.87661163 243.58862305 390.9609375 C243.58779221 392.61977211 243.58779221 392.61977211 243.58694458 394.31211853 C243.5872051 396.72118013 243.59411499 399.13024784 243.60678673 401.53927612 C243.62509873 405.356518 243.6225158 409.17320877 243.61372375 412.99047852 C243.59186888 423.84645287 243.60262073 434.70218565 243.64086914 445.55810547 C243.66399363 452.19358452 243.65539045 458.82861457 243.63041115 465.46411133 C243.62682289 467.99016234 243.63445164 470.51625582 243.65366173 473.04223633 C243.68008223 476.587352 243.6695176 480.13065383 243.65112305 483.67578125 C243.6680571 484.71202133 243.68499115 485.74826141 243.70243835 486.81590271 C243.6077578 494.33159718 241.48635229 499.3664206 236.92578125 505.3359375 C234.4765625 507.58984375 234.4765625 507.58984375 232.23828125 508.8984375 C231.49191406 509.35347656 230.74554688 509.80851562 229.9765625 510.27734375 C224.01588064 513.35419096 217.46062624 512.96693807 210.92578125 512.3359375 C204.98828899 510.25734916 200.36804214 505.51029145 196.92578125 500.3359375 C195.16804548 496.59406053 194.66025616 493.60125303 194.60452271 489.48028564 C194.57438583 487.72251297 194.57438583 487.72251297 194.54364014 485.92922974 C194.53197815 484.65224213 194.52031616 483.37525452 194.50830078 482.05957031 C194.48920817 480.69413309 194.46942518 479.32870537 194.44900513 477.96328735 C194.38642352 473.48866125 194.34572814 469.01396286 194.30859375 464.5390625 C194.30199911 463.77638282 194.29540446 463.01370314 194.28860998 462.22791195 C194.2270652 455.02880615 194.17368099 447.82968272 194.13977242 440.63039017 C194.09596587 431.43954294 194.01201285 422.25103313 193.87289727 413.06112027 C193.77826369 406.58875917 193.7298864 400.11702704 193.71537864 393.643996 C193.70548872 389.78223583 193.67557835 385.92311458 193.59589005 382.0621109 C193.52183609 378.42645024 193.50542502 374.79491653 193.53190231 371.15864182 C193.53174397 369.20026306 193.47222884 367.24216589 193.41052246 365.28475952 C193.49922124 359.87155374 193.67288514 356.64561089 197.51064682 352.63393402 C200.5603145 350.33898624 203.67993233 348.33932067 206.92578125 346.3359375 C225.46800764 331.58277449 237.54450514 309.79033164 240.92578125 286.3359375 C241.78979873 277.21430273 242.0746551 268.12926265 242.07104492 258.97167969 C242.07440353 257.71773407 242.07776215 256.46378845 242.08122253 255.17184448 C242.08901397 251.77952945 242.09239506 248.38727566 242.09303832 244.99495602 C242.09375507 242.86776157 242.09590086 240.74057332 242.09853554 238.61338043 C242.10774195 231.171286 242.11187566 223.72920931 242.11108398 216.28710938 C242.11048188 209.38078708 242.12107178 202.47454254 242.13682765 195.56823993 C242.14993887 189.60606357 242.1552665 183.64391257 242.15462857 177.68172193 C242.15437499 174.13471804 242.15714966 170.58778371 242.16780663 167.04079437 C242.17936358 163.08803806 242.1747189 159.1353876 242.16870117 155.18261719 C242.17432068 154.02496857 242.17994019 152.86731995 242.18572998 151.67459106 C242.14437949 140.95513535 241.44112123 132.37214263 233.92578125 124.3359375 C229.17176391 119.92977509 224.90678554 118.1127082 218.43359375 118.02734375 C216.88091797 117.98963867 216.88091797 117.98963867 215.296875 117.95117188 C213.14068307 117.91614349 210.9844268 117.88486572 208.828125 117.85742188 C202.01632146 117.68395359 196.58465288 117.35430644 191.140625 112.86328125 C188.41727152 109.47366392 186.14182437 106.05638096 183.98828125 102.2734375 C180.8504027 96.94634135 177.70210844 92.73256838 171.75 90.53125 C160.80577161 87.91609886 148.71223949 88.1277936 138.48828125 92.9609375 C132.69364541 95.19746361 128.15791709 95.19746361 122.36328125 92.9609375 C118.31803145 90.36375634 115.78098467 86.45478745 112.8984375 82.68359375 C109.47026927 78.60373413 106.07440268 76.8621305 100.86328125 75.5859375 C86.09696111 74.41244886 86.09696111 74.41244886 72.30078125 78.8359375 C70.0058775 81.25162565 68.58807957 83.46699624 66.92578125 86.3359375 C63.69984732 91.88944401 60.93556361 94.93998305 54.67578125 96.7734375 C49.56513942 97.71890624 45.45136743 96.87061658 40.92578125 94.3359375 C37.88673212 91.60802912 35.08215402 88.42179538 34.76806641 84.23217773 C34.75050293 83.37825439 34.73293945 82.52433105 34.71484375 81.64453125 C34.68648437 80.69900391 34.658125 79.75347656 34.62890625 78.77929688 C34.57753807 76.80290609 34.53306633 74.82632186 34.49609375 72.84960938 C34.26262616 65.64616146 33.74720223 58.3924769 28.67578125 52.8984375 C23.08446858 49.7215553 17.39510293 48.97069555 11.05078125 49.0234375 C10.35114258 49.02835205 9.65150391 49.0332666 8.93066406 49.03833008 C2.12269446 49.19219587 -3.41983977 49.88574152 -8.51171875 54.5859375 C-12.88784908 62.28792688 -12.35653663 70.17102963 -12.32958984 78.80493164 C-12.33234268 80.27404474 -12.33602435 81.74315634 -12.34056091 83.21226501 C-12.34864741 86.36554541 -12.35084786 89.51875501 -12.34861374 92.67204475 C-12.34577239 97.66044496 -12.36016216 102.64870451 -12.37759399 107.6370697 C-12.42454593 121.81832793 -12.44856727 135.99957565 -12.45507812 150.1809082 C-12.4588295 158.02106693 -12.47686107 165.86106552 -12.51017249 173.7011556 C-12.53037326 178.65797801 -12.53276394 183.61438711 -12.52189231 188.57123387 C-12.51928323 191.6559663 -12.53329794 194.74045846 -12.55197334 197.82512856 C-12.55729031 199.25294366 -12.55580693 200.68080315 -12.54693794 202.10860062 C-12.47073417 215.45483375 -12.47073417 215.45483375 -17.07421875 220.3359375 C-20.89352047 223.96427413 -23.95700881 224.64594208 -29.07421875 224.8359375 C-34.19142869 224.64594208 -37.25491703 223.96427413 -41.07421875 220.3359375 C-45.73112743 214.93722985 -45.67520713 210.20546222 -45.68359375 203.25 C-45.70013 202.19307953 -45.71666626 201.13615906 -45.73370361 200.04721069 C-45.78212907 196.68506018 -45.80354318 193.32336185 -45.82421875 189.9609375 C-45.85238288 187.67575857 -45.88231092 185.39060065 -45.9140625 183.10546875 C-45.98788651 177.51570694 -46.03956105 171.926072 -46.07421875 166.3359375 C-47.46833984 167.63917969 -47.46833984 167.63917969 -48.890625 168.96875 C-50.13925456 170.13288583 -51.38795635 171.29694418 -52.63671875 172.4609375 C-53.24580078 173.03070313 -53.85488281 173.60046875 -54.48242188 174.1875 C-58.12480846 177.57935206 -61.82439859 180.87308544 -65.64117432 184.06791687 C-73.25080336 190.80125074 -75.39024487 201.69746137 -76.07421875 211.3359375 C-76.23203896 217.24860828 -76.23958971 223.15972828 -76.2421875 229.07421875 C-76.24540721 230.80380785 -76.2487718 232.53339668 -76.25227356 234.26298523 C-76.25823866 237.878048 -76.26011615 241.49308696 -76.25952148 245.1081543 C-76.25941999 249.71073582 -76.27307145 254.31316266 -76.29029369 258.91570759 C-76.30148272 262.48563826 -76.30343859 266.05553234 -76.30291176 269.62547874 C-76.30408152 271.32092001 -76.30844598 273.01636254 -76.31624413 274.71178627 C-76.38052565 290.12930971 -76.01507625 304.72332053 -65.69921875 317.2109375 C-64.83296875 317.9121875 -63.96671875 318.6134375 -63.07421875 319.3359375 C-62.55641846 319.75633301 -62.03861816 320.17672852 -61.50512695 320.60986328 C-55.59661845 325.23032487 -49.21462624 328.76060798 -42.63671875 332.3359375 C-41.45250789 332.98532293 -40.26867617 333.63540017 -39.08520508 334.28613281 C-37.2571397 335.29123881 -35.42886451 336.29593464 -33.59934998 337.29840088 C-26.07304066 341.42407253 -18.59882104 345.64208168 -11.12133789 349.85546875 C-9.66522095 350.67337891 -9.66522095 350.67337891 -8.1796875 351.5078125 C-7.33559326 351.9831543 -6.49149902 352.45849609 -5.62182617 352.94824219 C-2.80600771 354.48203348 0.05516465 355.9078222 2.92578125 357.3359375 C3.06617926 375.1560993 3.17186342 392.97611682 3.23665428 410.79671288 C3.26754259 419.07185777 3.30962608 427.34665825 3.37841797 435.62158203 C3.43837495 442.83722538 3.47696692 450.05261919 3.49031222 457.26850474 C3.49810871 461.08651741 3.51632478 464.90381649 3.56016159 468.72159958 C3.60116181 472.32181688 3.61339616 475.92103288 3.60442734 479.52146149 C3.6068419 481.45913022 3.63898677 483.39669211 3.67230225 485.33407593 C3.61516705 493.47280733 2.02790222 498.91597261 -3.07421875 505.3359375 C-5.5234375 507.58984375 -5.5234375 507.58984375 -7.76171875 508.8984375 C-8.50808594 509.35347656 -9.25445312 509.80851562 -10.0234375 510.27734375 C-15.98411936 513.35419096 -22.53937376 512.96693807 -29.07421875 512.3359375 C-35.65012032 510.03385579 -40.86194175 504.41732327 -44.13668823 498.37580872 C-45.52494987 493.8744762 -45.33522531 489.5382907 -45.30126953 484.85424805 C-45.30156158 483.80013229 -45.30185364 482.74601654 -45.30215454 481.65995789 C-45.30076282 478.18077319 -45.28520876 474.70180347 -45.26953125 471.22265625 C-45.26580057 468.80841692 -45.26295386 466.39417608 -45.26095581 463.97993469 C-45.25332373 457.62921968 -45.23367878 451.27859631 -45.21154785 444.92791748 C-45.19108034 438.44609822 -45.18195215 431.96426414 -45.171875 425.48242188 C-45.15043259 412.76688801 -45.11668674 400.05141763 -45.07421875 387.3359375 C-46.01597458 387.03006714 -46.95773041 386.72419678 -47.92802429 386.40905762 C-50.75548123 385.44465413 -53.08162062 384.35810165 -55.65625 382.8671875 C-56.49744385 382.3837085 -57.3386377 381.90022949 -58.20532227 381.40209961 C-59.09018311 380.88526611 -59.97504395 380.36843262 -60.88671875 379.8359375 C-62.27298462 379.03071655 -62.27298462 379.03071655 -63.68725586 378.20922852 C-65.57833126 377.11015168 -67.46839073 376.00932496 -69.35742188 374.90673828 C-71.82689103 373.47893773 -74.31159056 372.08591771 -76.80859375 370.70703125 C-86.04799426 365.55160966 -93.68710528 359.91361383 -101.07421875 352.3359375 C-101.81027344 351.60890625 -102.54632813 350.881875 -103.3046875 350.1328125 C-122.20133728 330.39549938 -125.55304594 305.36996291 -125.5078125 279.34375 C-125.51238385 277.02554167 -125.51769223 274.7073347 -125.5236969 272.38912964 C-125.53258946 267.54956529 -125.53024908 262.71016631 -125.52026367 257.87060547 C-125.50878121 251.70909419 -125.52899497 245.54815666 -125.55818081 239.38672066 C-125.57664264 234.60448663 -125.57623049 229.82238757 -125.57054329 225.0401268 C-125.57039128 222.77023387 -125.57633418 220.50033108 -125.58883476 218.23047256 C-125.71748301 191.04611893 -119.68123952 168.03138162 -100.12255859 148.07177734 C-94.89296516 142.84218391 -89.54317917 137.81108993 -83.95141602 132.97021484 C-81.2775247 130.64234016 -78.67822448 128.24181236 -76.07421875 125.8359375 C-75.12546875 124.959375 -74.17671875 124.0828125 -73.19921875 123.1796875 C-72.70971741 122.71404388 -72.22021606 122.24840027 -71.71588135 121.76864624 C-70.07421875 120.3359375 -70.07421875 120.3359375 -68.04925537 119.00405884 C-64.56670288 116.53984089 -62.40465186 114.67447115 -61.35998535 110.44268799 C-61.11831615 106.8607152 -61.12360539 103.35464991 -61.21484375 99.765625 C-61.21271938 97.75826534 -61.21057405 95.75090548 -61.20725632 93.74354744 C-61.21223707 90.9405113 -61.25318251 88.13845522 -61.29449463 85.33575439 C-61.36273921 80.45731791 -61.39269689 75.57887115 -61.3949585 70.69998169 C-61.39974465 68.10974159 -61.4250319 65.51942583 -61.47467041 62.92965698 C-61.56114051 45.95997201 -54.97543686 30.77005645 -43.40405273 18.44873047 C-31.93953662 6.8772511 -16.2215278 0.04553455 0 0 Z " fill="#000000" transform="translate(189.07421875,-0.3359375)"/>
</svg>
