<?xml version="1.0" encoding="UTF-8"?>
<svg version="1.1" xmlns="http://www.w3.org/2000/svg" width="474" height="474">
<path d="M0 0 C3.80370248 3.19310813 6.96746508 6.55020134 9.96875 10.4921875 C10.649375 11.2553125 11.33 12.0184375 12.03125 12.8046875 C19.96875 23.81476815 19.96875 23.81476815 19.96875 28.4921875 C20.56034912 28.29810303 21.15194824 28.10401855 21.76147461 27.90405273 C39.68184372 22.04460002 57.68970108 16.49392267 75.72506714 11.00030518 C87.67131911 7.36031845 99.60036352 3.69213565 111.46875 -0.1953125 C123.1945057 -4.02458241 135.00877222 -7.53357016 146.84375 -11.0078125 C147.75358643 -11.27596771 148.66342285 -11.54412292 149.60083008 -11.82040405 C152.19884132 -12.58493588 154.79832437 -13.34421362 157.3984375 -14.1015625 C158.175289 -14.33027542 158.9521405 -14.55898834 159.75253296 -14.79463196 C175.35971256 -19.30911694 189.44222796 -17.928117 203.96875 -10.5078125 C216.0792672 -2.79770062 224.7552333 9.11911671 228.40625 23.0546875 C230.84574646 37.71877176 228.28405392 52.13210905 219.96875 64.4921875 C212.8998127 73.9323506 204.61693768 78.89623016 193.96875 83.4921875 C194.70399902 83.50677002 195.43924805 83.52135254 196.19677734 83.53637695 C199.5795878 83.61158005 202.96148811 83.70799932 206.34375 83.8046875 C207.50003906 83.82724609 208.65632813 83.84980469 209.84765625 83.87304688 C224.19811691 84.31896514 237.30412855 88.72017804 247.90625 98.8046875 C253.37900801 104.6899144 259.96875 113.11791593 259.96875 121.4921875 C260.62875 121.4921875 261.28875 121.4921875 261.96875 121.4921875 C261.96875 130.7321875 261.96875 139.9721875 261.96875 149.4921875 C261.30875 149.4921875 260.64875 149.4921875 259.96875 149.4921875 C259.906875 150.4615625 259.845 151.4309375 259.78125 152.4296875 C258.15410197 163.2339504 249.20072167 172.34404827 240.96875 178.8671875 C232.36344485 184.91138992 222.82569005 187.70201104 212.359375 187.81103516 C211.2896067 187.82610359 211.2896067 187.82610359 210.19822693 187.84147644 C207.87174185 187.87204294 205.54537037 187.88926859 203.21875 187.90625 C201.5934961 187.92498309 199.9682517 187.94455807 198.34301758 187.9649353 C194.08853792 188.01603656 189.8340268 188.05577931 185.57940674 188.09307861 C181.22864135 188.13325705 176.87800433 188.18428592 172.52734375 188.234375 C164.00790053 188.33087336 155.48839323 188.41536069 146.96875 188.4921875 C147.28346504 189.40044029 147.28346504 189.40044029 147.60453796 190.32704163 C147.87772354 191.12798752 148.15090912 191.92893341 148.43237305 192.75415039 C148.70405807 193.54527725 148.9757431 194.33640411 149.25566101 195.15150452 C153.07178343 207.67775711 150.74148274 221.01733649 144.96875 232.4921875 C142.83350576 235.97927541 140.64499612 239.39407007 137.96875 242.4921875 C137.30875 242.4921875 136.64875 242.4921875 135.96875 242.4921875 C135.741875 243.1109375 135.515 243.7296875 135.28125 244.3671875 C133.58945165 247.10628959 131.97630839 247.54243222 128.96875 248.4921875 C128.96875 249.1521875 128.96875 249.8121875 128.96875 250.4921875 C127.31875 250.8221875 125.66875 251.1521875 123.96875 251.4921875 C124.17371094 252.11222656 124.37867188 252.73226563 124.58984375 253.37109375 C129.44015932 269.31447557 128.77215874 283.67792992 120.9609375 298.46484375 C112.94617497 310.64413975 101.87899368 317.61591114 88.22066593 322.06111431 C84.90784016 322.69527225 81.61065075 322.64020684 78.25059509 322.63935852 C77.46837399 322.64303521 76.68615288 322.6467119 75.8802281 322.6505 C73.25600154 322.66152277 70.6318146 322.66537845 68.00756836 322.66918945 C66.12649917 322.67545568 64.24543122 322.68210262 62.36436462 322.68910217 C56.17911643 322.71014415 49.99386801 322.72051175 43.80859375 322.73046875 C41.67431691 322.7345177 39.5400402 322.73863466 37.40576363 322.74281883 C27.36721025 322.76187891 17.32866422 322.77610244 7.29009622 322.7844308 C-4.26323407 322.79417558 -15.81637135 322.82041926 -27.36963373 322.86093169 C-36.31770958 322.89122073 -45.26573057 322.90591215 -54.21385664 322.90921181 C-59.54820186 322.91154977 -64.88234114 322.92034382 -70.21663094 322.94567299 C-75.24901888 322.96918015 -80.28106865 322.97309723 -85.31349754 322.96291161 C-87.14545958 322.96242142 -88.97743955 322.96858619 -90.80934906 322.98246765 C-122.48562871 323.20876077 -151.33868004 312.65897297 -175.03125 291.4921875 C-175.03125 290.8321875 -175.03125 290.1721875 -175.03125 289.4921875 C-176.35125 288.8321875 -177.67125 288.1721875 -179.03125 287.4921875 C-179.03125 286.8321875 -179.03125 286.1721875 -179.03125 285.4921875 C-179.59328125 285.28078125 -180.1553125 285.069375 -180.734375 284.8515625 C-183.80483462 283.0343517 -185.67347695 280.55186504 -187.78125 277.7421875 C-188.43540894 276.87436646 -188.43540894 276.87436646 -189.1027832 275.98901367 C-199.72509106 261.60056201 -207.05944466 245.36190949 -210.5234375 227.80078125 C-210.80331127 225.54056327 -210.80331127 225.54056327 -212.03125 224.4921875 C-212.13830197 222.82246581 -212.17534057 221.14821881 -212.18515015 219.47509766 C-212.19375061 218.38762238 -212.20235107 217.30014709 -212.21121216 216.17971802 C-212.21547211 214.97572357 -212.21973206 213.77172913 -212.22412109 212.53125 C-212.23229858 211.27093964 -212.24047607 210.01062927 -212.24890137 208.71212769 C-212.27518855 204.51383621 -212.29045589 200.31553456 -212.3046875 196.1171875 C-212.31004828 194.66853835 -212.31542579 193.21988926 -212.32081985 191.77124023 C-212.34247644 185.73379378 -212.36120263 179.69635003 -212.37244225 173.65887451 C-212.38860392 165.03513439 -212.42155763 156.41185055 -212.47884309 147.78828239 C-212.51780153 141.71331246 -212.53710641 135.63846307 -212.54236281 129.56337166 C-212.545987 125.94367194 -212.55768581 122.32445801 -212.59046555 118.70489502 C-212.7207402 103.58675518 -212.74659363 89.70084068 -207.03125 75.4921875 C-206.67388763 74.54453018 -206.31652527 73.59687286 -205.94833374 72.62049866 C-205.11258587 70.45115185 -204.19763973 68.35031013 -203.21875 66.2421875 C-202.8781958 65.49751221 -202.5376416 64.75283691 -202.18676758 63.9855957 C-196.47852431 51.77764661 -189.05726003 41.43312737 -180.03125 31.4921875 C-178.84402344 30.161875 -178.84402344 30.161875 -177.6328125 28.8046875 C-163.64350568 13.93233473 -143.93914454 3.93840941 -124.58984375 -1.8359375 C-120.47278633 -3.06483584 -116.3711894 -4.33709591 -112.2734375 -5.62890625 C-74.23911741 -17.60466737 -34.32795698 -26.54452739 0 0 Z M-97.11547852 27.05297852 C-99.98588313 27.9349519 -102.86067059 28.80134155 -105.73632812 29.66601562 C-107.59402636 30.23086273 -109.4514582 30.79658686 -111.30859375 31.36328125 C-112.15252182 31.61758408 -112.99644989 31.8718869 -113.86595154 32.13389587 C-119.45852441 33.86502072 -124.72645008 36.0230745 -130.03125 38.4921875 C-130.91554687 38.87761719 -131.79984375 39.26304688 -132.7109375 39.66015625 C-151.58628332 48.42610867 -165.6681944 66.35365694 -173.03125 85.4921875 C-176.28631474 95.4065722 -177.18050865 104.89001402 -177.19238281 115.26000977 C-177.19734772 116.30997635 -177.20231262 117.35994293 -177.20742798 118.44172668 C-177.22196916 121.89735585 -177.22883899 125.35293908 -177.234375 128.80859375 C-177.23720238 129.99611677 -177.24002975 131.18363979 -177.24294281 132.40714836 C-177.25790475 138.69436743 -177.2671525 144.98156373 -177.27148438 151.26879883 C-177.27695736 157.72864431 -177.30096949 164.18827778 -177.32945633 170.64805698 C-177.34818126 175.64554939 -177.35329359 180.64299178 -177.35482025 185.64051628 C-177.35782625 188.02009169 -177.3657844 190.39966665 -177.37900543 192.77920723 C-177.50906376 217.99131489 -173.8067548 237.17603576 -158.03125 257.4921875 C-157.495 258.20246094 -156.95875 258.91273438 -156.40625 259.64453125 C-143.59005496 275.70118469 -122.82897463 284.37131935 -103.03125 287.4921875 C-99.77129734 287.73646421 -96.53495491 287.7471117 -93.26708984 287.71923828 C-91.889646 287.71967636 -91.889646 287.71967636 -90.484375 287.72012329 C-87.48687879 287.71874388 -84.48963961 287.70324886 -81.4921875 287.6875 C-79.39897802 287.68376492 -77.30576679 287.68092029 -75.21255493 287.67892456 C-69.7315784 287.67132706 -64.25070965 287.65171229 -58.76977539 287.6295166 C-53.16554217 287.60897412 -47.56129135 287.59990495 -41.95703125 287.58984375 C-30.98172376 287.56846243 -20.00649588 287.53437386 -9.03125 287.4921875 C-9.69125 287.1621875 -10.35125 286.8321875 -11.03125 286.4921875 C-11.73747199 285.1793765 -12.39662203 283.84106465 -13.03125 282.4921875 C-13.49402344 281.7084375 -13.95679688 280.9246875 -14.43359375 280.1171875 C-21.7587323 267.59175974 -24.36848529 254.02240075 -20.84375 239.7421875 C-18.24784161 231.45478043 -14.19018936 224.41990607 -9.03125 217.4921875 C-9.03125 217.1621875 -9.03125 216.8321875 -9.03125 216.4921875 C-10.33835938 216.36263672 -10.33835938 216.36263672 -11.671875 216.23046875 C-22.91352803 214.90434301 -32.50291051 212.14622405 -41.3125 204.82421875 C-43.00137288 203.40502084 -43.00137288 203.40502084 -45.125 202.56640625 C-47.54396134 201.20326205 -47.94816248 200.01482173 -49.03125 197.4921875 C-49.96089544 195.9873069 -50.89909126 194.48768946 -51.84375 192.9921875 C-58.60236471 181.68095446 -61.82453525 169.57992667 -65.03125 156.9296875 C-65.44709156 155.3142405 -65.86375505 153.69900486 -66.28125 152.08398438 C-67.11257662 148.86393117 -67.94052687 145.64304135 -68.765625 142.42138672 C-70.09299677 137.24544302 -71.43141597 132.07247495 -72.78125 126.90234375 C-72.99201172 126.08809433 -73.20277344 125.27384491 -73.41992188 124.43492126 C-74.44812835 120.36454473 -74.44812835 120.36454473 -76.03125 116.4921875 C-78.8679085 117.60965903 -81.60314497 118.77273975 -84.34375 120.1171875 C-90.0938666 122.26129878 -94.62861514 122.35643627 -100.21875 119.9921875 C-104.65087159 117.5007582 -107.23603373 114.23489839 -109.03125 109.4921875 C-109.80777255 104.58783457 -109.56988819 99.84413867 -107.03125 95.4921875 C-103.38503449 91.46671235 -99.61123549 88.74966943 -94.96875 86.0546875 C-94.31261719 85.66780762 -93.65648438 85.28092773 -92.98046875 84.88232422 C-87.13200944 81.47213973 -81.15187133 78.38557213 -75.03125 75.4921875 C-74.36609375 75.151875 -73.7009375 74.8115625 -73.015625 74.4609375 C-68.44100564 72.235447 -65.01586125 72.01746262 -60.03125 72.4921875 C-55.02782844 74.25810099 -51.92659767 77.11746944 -49.03125 81.4921875 C-47.78448949 84.3153653 -46.96435172 87.20485369 -46.15625 90.1796875 C-45.91140869 91.03763916 -45.66656738 91.89559082 -45.41430664 92.77954102 C-44.59754402 95.67808665 -43.81056735 98.5833564 -43.03125 101.4921875 C-42.74459473 102.55888672 -42.45793945 103.62558594 -42.16259766 104.72460938 C-39.09108786 116.23143557 -36.17325315 127.76875456 -33.46875 139.3671875 C-31.77431141 146.56628806 -29.98072917 153.73263091 -28.03125 160.8671875 C-27.80622803 161.72940918 -27.58120605 162.59163086 -27.34936523 163.47998047 C-25.52857178 169.97685884 -23.00530843 175.06598194 -17.65625 179.4296875 C-12.91196312 181.34999409 -9.22530579 180.86275654 -4.40625 179.3671875 C0.33799521 176.73149572 3.21306493 173.7592427 4.96875 168.4921875 C4.77145416 159.66077282 3.43527088 150.8545108 2.21875 142.1171875 C1.85710426 139.46366837 1.49630978 136.81004706 1.13671875 134.15625 C0.99513588 133.11467743 0.99513588 133.11467743 0.85069275 132.05206299 C-0.19229372 124.35497947 -1.17457544 116.65030293 -2.15567017 108.94512939 C-2.46939822 106.48710877 -2.78546982 104.02940057 -3.10229492 101.57177734 C-4.08906744 93.91025047 -5.06575441 86.24803513 -5.99845886 78.57971191 C-6.42025745 75.12725455 -6.85218183 71.67610393 -7.28567505 68.22509766 C-7.48799842 66.59448556 -7.68579572 64.96330425 -7.87863159 63.33154297 C-9.71444989 47.82252415 -12.49174808 36.30390222 -24.9375 25.8984375 C-33.20708248 20.15177849 -42.93876334 18.14566695 -52.84375 18.0546875 C-53.85381104 18.0395813 -53.85381104 18.0395813 -54.88427734 18.02416992 C-69.3492091 18.26083218 -83.41838616 22.83912431 -97.11547852 27.05297852 Z M171.4453125 18.70703125 C170.06098022 19.11078979 170.06098022 19.11078979 168.64868164 19.52270508 C167.6405542 19.82200928 166.63242676 20.12131348 165.59375 20.4296875 C164.5308374 20.74252686 163.4679248 21.05536621 162.37280273 21.37768555 C153.02367001 24.14536489 143.71223166 27.03150828 134.4050293 29.93652344 C124.91877161 32.89571142 115.41742938 35.80173955 105.90625 38.6796875 C105.20072998 38.89321869 104.49520996 39.10674988 103.76831055 39.32675171 C95.69317043 41.76988884 87.61437059 44.20057577 79.53125 46.6171875 C69.70804596 49.55463598 59.90807507 52.56694725 50.11328125 55.59765625 C46.34480089 56.76341164 42.57280569 57.91460363 38.79296875 59.04296875 C37.6632666 59.3841272 37.6632666 59.3841272 36.51074219 59.73217773 C34.55936738 60.32098584 32.60593778 60.90297241 30.65234375 61.484375 C27.83352667 62.19588382 27.83352667 62.19588382 26.96875 64.4921875 C27.13821973 66.5940045 27.391531 68.68921223 27.68139648 70.77783203 C27.76903259 71.42185974 27.8566687 72.06588745 27.94696045 72.72943115 C28.23867355 74.8621481 28.53922477 76.99352169 28.83984375 79.125 C29.04359918 80.6018029 29.24680372 82.0786819 29.44947815 83.55563354 C29.98485592 87.44607115 30.52772979 91.33542737 31.07214355 95.22460938 C31.62617322 99.19208521 32.17314547 103.16053297 32.72070312 107.12890625 C33.79646005 114.91763822 34.88013388 122.70524248 35.96875 130.4921875 C37.04747879 130.68201202 38.12620758 130.87183655 39.23762512 131.06741333 C40.67775478 131.32737512 42.1178307 131.58763474 43.55786133 131.84814453 C44.26590157 131.97191971 44.9739418 132.09569489 45.70343781 132.22322083 C52.38214355 133.44254868 58.42328402 135.6927093 64.65625 138.3671875 C66.81357419 139.2622682 68.97112395 140.15680547 71.12890625 141.05078125 C72.13840332 141.47472168 73.14790039 141.89866211 74.18798828 142.33544922 C78.52930368 144.14134495 82.92054281 145.79923837 87.3203125 147.45703125 C89.96875 148.4921875 89.96875 148.4921875 93.08454895 150.02886963 C97.32084966 151.83907455 101.20584342 151.93964628 105.7644043 151.94042969 C106.61777878 151.95222763 107.47115326 151.96402557 108.35038757 151.97618103 C111.16463105 152.01137012 113.97854419 152.02555862 116.79296875 152.0390625 C118.7785602 152.0584967 120.76414103 152.07904524 122.74971008 152.10064697 C126.92157996 152.14299619 131.09337189 152.17562639 135.26538086 152.20068359 C140.52665419 152.23249832 145.7875492 152.28226151 151.04861259 152.33841705 C169.21291514 152.53001614 187.38895647 152.69762931 205.55078125 152.2578125 C206.65435471 152.24280701 207.75792816 152.22780151 208.89494324 152.21234131 C214.86048771 152.011289 218.40950814 151.44609711 222.96875 147.4921875 C226.74806932 143.19158276 227.25955306 139.32152311 227.1875 133.7734375 C226.77668386 129.48921201 224.80368234 126.60543062 222.28125 123.2421875 C215.53055343 118.13355226 206.13361497 119.22044191 198.1171875 119.26513672 C196.72686267 119.26570168 195.33653725 119.26538262 193.94621277 119.26425171 C190.19262098 119.2636805 186.43915837 119.27539698 182.68559647 119.28939962 C178.75516677 119.30194589 174.82473374 119.30308055 170.89428711 119.30545044 C163.4607136 119.31165379 156.02719928 119.32804905 148.59365177 119.34814942 C140.1268884 119.37054414 131.66012213 119.38151082 123.19333649 119.39154029 C105.78510682 119.41241634 88.37693468 119.44756996 70.96875 119.4921875 C71.00246704 117.66167847 71.00246704 117.66167847 71.03686523 115.79418945 C71.05504908 114.16878833 71.07267919 112.54338095 71.08984375 110.91796875 C71.10607788 110.11653442 71.12231201 109.3151001 71.13903809 108.48937988 C71.18638005 102.49833097 70.1932712 97.56599822 67.94140625 91.97265625 C66.96568495 89.484371 66.41723051 87.12169953 65.96875 84.4921875 C66.72027344 84.399375 67.47179687 84.3065625 68.24609375 84.2109375 C73.47045246 83.20224705 78.45865373 81.58469829 83.53125 79.9921875 C84.66876709 79.63906494 85.80628418 79.28594238 86.97827148 78.92211914 C93.07252255 77.02879586 99.16124853 75.11794989 105.25 73.20703125 C116.6795218 69.62811333 128.10932131 66.11245957 139.65625 62.9296875 C148.44407476 60.50706743 157.1885041 57.96918385 165.90625 55.3046875 C166.96610107 54.98363037 168.02595215 54.66257324 169.11791992 54.33178711 C175.53945663 52.35219257 181.77348201 50.09534939 187.96875 47.4921875 C187.96875 46.8321875 187.96875 46.1721875 187.96875 45.4921875 C188.62875 45.4921875 189.28875 45.4921875 189.96875 45.4921875 C193.32736642 41.32750314 194.25742487 36.74082153 193.96875 31.4921875 C192.39126597 26.19034768 189.70888888 22.42655918 184.96875 19.4921875 C179.91348789 17.47008266 176.62184176 17.18991556 171.4453125 18.70703125 Z M39.96875 166.4921875 C39.65744141 168.12414062 39.65744141 168.12414062 39.33984375 169.7890625 C37.52703064 178.63813406 35.34853372 185.64953464 30.359375 193.26953125 C28.79194978 195.33779673 28.79194978 195.33779673 28.96875 197.4921875 C29.67032227 197.76780518 30.37189453 198.04342285 31.09472656 198.32739258 C32.08956055 198.71822021 33.08439453 199.10904785 34.109375 199.51171875 C35.22973145 199.95185303 36.35008789 200.3919873 37.50439453 200.84545898 C40.00538689 201.82800344 42.50636583 202.81058199 45.00732422 203.79321289 C50.94005038 206.12413687 56.872874 208.45481038 62.80639648 210.78370667 C64.69225886 211.52391853 66.57807043 212.26425967 68.46386719 213.00463867 C70.82639726 213.93213988 73.18902251 214.85939869 75.55175781 215.78637695 C76.64069336 216.21394287 77.72962891 216.64150879 78.8515625 217.08203125 C79.88667969 217.48728027 80.92179687 217.8925293 81.98828125 218.31005859 C83.93976448 219.08406595 85.88543322 219.87293708 87.82421875 220.67822266 C89.13712891 221.2222876 89.13712891 221.2222876 90.4765625 221.77734375 C91.23340332 222.09711182 91.99024414 222.41687988 92.77001953 222.74633789 C97.96684813 224.50919725 102.31033942 224.28950028 107.21875 221.9296875 C111.17552406 218.42254685 114.42559277 215.42995967 115.41796875 210.0625 C115.66685217 204.41542097 114.7518408 199.89661484 110.96875 195.4921875 C108.13848142 193.57643774 105.13105493 192.32848591 101.96875 191.0546875 C101.07720215 190.67546143 100.1856543 190.29623535 99.26708984 189.90551758 C96.5107601 188.74221353 93.74255916 187.61308987 90.96875 186.4921875 C90.1737207 186.16637695 89.37869141 185.84056641 88.55957031 185.50488281 C83.73125824 183.5280813 78.88188564 181.60824261 74.02587891 179.70068359 C70.36981944 178.2554277 66.72172265 176.79090372 63.07421875 175.32421875 C61.69125076 174.76861798 60.30827548 174.21303534 58.92529297 173.6574707 C56.85717923 172.82660867 54.78921183 171.9953933 52.72174072 171.16293335 C50.79039912 170.38565043 48.85819451 169.61055156 46.92578125 168.8359375 C45.80147705 168.38412109 44.67717285 167.93230469 43.51879883 167.46679688 C41.26805758 166.43268639 41.26805758 166.43268639 39.96875 166.4921875 Z M15.59375 241.7421875 C12.73619831 246.57804421 11.56257517 250.56345182 12.53125 256.1171875 C13.71124377 260.46103958 15.29180289 262.7540354 18.96875 265.4921875 C21.8894498 267.04231301 24.90487583 268.25556864 27.96875 269.4921875 C34.19959572 272.06563466 40.41446515 274.67592636 46.6171875 277.31640625 C48.27814453 278.02313477 48.27814453 278.02313477 49.97265625 278.74414062 C52.2441166 279.71141951 54.51493771 280.68020075 56.78515625 281.65039062 C58.43451172 282.35131836 58.43451172 282.35131836 60.1171875 283.06640625 C61.58937744 283.69421997 61.58937744 283.69421997 63.09130859 284.3347168 C69.98753013 287.1087696 75.65861125 288.92890042 82.96875 286.4921875 C83.62875 286.1621875 84.28875 285.8321875 84.96875 285.4921875 C84.96875 284.8321875 84.96875 284.1721875 84.96875 283.4921875 C85.566875 283.2859375 86.165 283.0796875 86.78125 282.8671875 C89.95684831 280.87109713 90.69093179 279.00618758 91.96875 275.4921875 C92.65745902 270.85377375 92.45170827 267.4967407 90.40625 263.2421875 C85.81091032 258.0577017 81.49556883 255.6580377 74.96875 253.4921875 C71.15747158 251.95563655 67.37835066 250.34312591 63.59375 248.7421875 C39.39705477 236.16240175 39.39705477 236.16240175 15.59375 241.7421875 Z " fill="#020202" transform="translate(212.03125,84.5078125)"/>
<path d="M0 0 C1.32 0 2.64 0 4 0 C4.495 2.97 4.495 2.97 5 6 C4.01 5.67 3.02 5.34 2 5 C1.67 5.66 1.34 6.32 1 7 C0.505 6.505 0.505 6.505 0 6 C-2.67702436 5.87487856 -5.32952273 5.81393431 -8.00805664 5.79467773 C-8.84700974 5.78477814 -9.68596283 5.77487854 -10.55033875 5.76467896 C-13.3369154 5.73296815 -16.12350913 5.70826886 -18.91015625 5.68359375 C-20.83687292 5.66303248 -22.76358499 5.64203624 -24.69029236 5.62062073 C-29.771823 5.56531458 -34.85339492 5.51594312 -39.93499756 5.46777344 C-45.1162078 5.41762062 -50.2973578 5.36190217 -55.47851562 5.30664062 C-65.65229233 5.19895463 -75.82612125 5.097533 -86 5 C-86 4.67 -86 4.34 -86 4 C-42.935 3.505 -42.935 3.505 1 3 C0.505 1.515 0.505 1.515 0 0 Z " fill="#131111" transform="translate(200,368)"/>
<path d="M0 0 C0.33644531 0.51175781 0.67289062 1.02351563 1.01953125 1.55078125 C0.07464844 1.48761719 -0.87023437 1.42445312 -1.84375 1.359375 C-7.79419159 1.35787728 -13.27699681 3.65521441 -18.86132812 5.50585938 C-19.71919922 5.77978516 -20.57707031 6.05371094 -21.4609375 6.3359375 C-22.23332764 6.5925415 -23.00571777 6.84914551 -23.80151367 7.11352539 C-26.2166304 7.59817234 -27.6670272 7.3265323 -29.98046875 6.55078125 C-28.19026265 5.88020238 -26.39825386 5.21443435 -24.60546875 4.55078125 C-23.60773438 4.17953125 -22.61 3.80828125 -21.58203125 3.42578125 C-18.98046875 2.55078125 -18.98046875 2.55078125 -16.98046875 2.55078125 C-16.98046875 1.89078125 -16.98046875 1.23078125 -16.98046875 0.55078125 C-14.54488047 0.13436456 -12.10942425 -0.25783355 -9.66796875 -0.63671875 C-8.97767578 -0.75724609 -8.28738281 -0.87777344 -7.57617188 -1.00195312 C-2.42372692 -1.77357532 -2.42372692 -1.77357532 0 0 Z " fill="#232224" transform="translate(393.98046875,101.44921875)"/>
<path d="M0 0 C4.76922298 0.09367845 9.5379469 0.19980386 14.30664062 0.31738281 C15.92830859 0.35562358 17.55005996 0.39048503 19.171875 0.421875 C21.50551117 0.46763257 23.83857562 0.52560816 26.171875 0.5859375 C27.25647003 0.60326431 27.25647003 0.60326431 28.36297607 0.62094116 C32.04723208 0.72853178 34.86291492 0.97721889 38 3 C37.01080566 2.99476318 36.02161133 2.98952637 35.00244141 2.98413086 C31.33855084 2.96605477 27.67466423 2.95455842 24.01074219 2.94506836 C22.42382139 2.94003412 20.83690523 2.93320631 19.25 2.92456055 C16.97134251 2.91245518 14.69274624 2.90676267 12.4140625 2.90234375 C11.70255035 2.89718246 10.99103821 2.89202118 10.25796509 2.88670349 C6.50406444 2.82685242 6.50406444 2.82685242 3 4 C3 3.34 3 2.68 3 2 C2.01 2 1.02 2 0 2 C0 1.34 0 0.68 0 0 Z " fill="#131214" transform="translate(398,168)"/>
<path d="M0 0 C2.71262116 0.2322646 5.40773126 0.41936235 8.125 0.5625 C9.25615234 0.62727539 9.25615234 0.62727539 10.41015625 0.69335938 C12.27321888 0.7994832 14.13658524 0.90025001 16 1 C16 1.33 16 1.66 16 2 C5.77 2.66 -4.46 3.32 -15 4 C-12.08113721 2.54056861 -9.43322662 1.36088872 -6.375 0.3125 C-5.59898437 0.04050781 -4.82296875 -0.23148437 -4.0234375 -0.51171875 C-2 -1 -2 -1 0 0 Z " fill="#18181A" transform="translate(152,101)"/>
<path d="M0 0 C1.32 0.99 2.64 1.98 4 3 C3.67 3.33 3.34 3.66 3 4 C3.24977281 5.58679195 3.52494528 7.16961795 3.8125 8.75 C4.3801932 13.46726015 4.3801932 13.46726015 2.734375 15.7734375 C1.0625 17.125 1.0625 17.125 -2 19 C-1.65775391 18.07380859 -1.65775391 18.07380859 -1.30859375 17.12890625 C0.81171614 10.88207396 1.15214343 6.49389936 0 0 Z " fill="#19191B" transform="translate(404,111)"/>
<path d="M0 0 C-1.175625 0.12375 -1.175625 0.12375 -2.375 0.25 C-5.14749104 0.72806339 -5.14749104 0.72806339 -6.3125 3.0625 C-6.539375 3.701875 -6.76625 4.34125 -7 5 C-7.680625 4.814375 -8.36125 4.62875 -9.0625 4.4375 C-12.57232191 3.91476057 -15.52188063 4.38621423 -19 5 C-16.4156782 2.4156782 -14.10624423 1.89598837 -10.625 0.8125 C-9.48289062 0.44769531 -8.34078125 0.08289063 -7.1640625 -0.29296875 C-4.18525347 -0.95860385 -2.79128097 -1.07938697 0 0 Z " fill="#272428" transform="translate(343,151)"/>
<path d="M0 0 C4.86896303 0.59619955 9.32790951 1.56976822 14 3 C14 3.66 14 4.32 14 5 C14.99 5 15.98 5 17 5 C17 5.66 17 6.32 17 7 C13.26345828 6.19534869 9.80577218 4.82425115 6.25 3.4375 C5.07953125 2.98246094 3.9090625 2.52742188 2.703125 2.05859375 C1.81109375 1.70925781 0.9190625 1.35992187 0 1 C0 0.67 0 0.34 0 0 Z " fill="#1C1B1D" transform="translate(265,329)"/>
<path d="M0 0 C5.54050113 0.56825653 10.03715966 2.62886517 15 5 C13.140625 6.0546875 13.140625 6.0546875 11 7 C8.75 6.125 8.75 6.125 7 5 C7 4.34 7 3.68 7 3 C5.02 3.99 5.02 3.99 3 5 C2.87625 4.360625 2.7525 3.72125 2.625 3.0625 C2.315625 2.0415625 2.315625 2.0415625 2 1 C1.34 0.67 0.68 0.34 0 0 Z " fill="#171719" transform="translate(294,230)"/>
<path d="M0 0 C0.515625 0.185625 1.03125 0.37125 1.5625 0.5625 C4.85908739 1.15419517 7.72245735 0.567267 11 0 C8.58069291 2.41930709 6.84292782 2.79442204 3.5625 3.6875 C2.59441406 3.95949219 1.62632812 4.23148437 0.62890625 4.51171875 C-2 5 -2 5 -5 4 C-4.0409375 3.8453125 -4.0409375 3.8453125 -3.0625 3.6875 C-2.381875 3.460625 -1.70125 3.23375 -1 3 C-0.67 2.01 -0.34 1.02 0 0 Z " fill="#242225" transform="translate(353,109)"/>
<path d="M0 0 C1.65 0 3.3 0 5 0 C3.54986969 2.90026063 1.69479373 3.04954396 -1.3125 4.125 C-2.27800781 4.47820312 -3.24351562 4.83140625 -4.23828125 5.1953125 C-7 6 -7 6 -11 6 C-11 5.34 -11 4.68 -11 4 C-9.5422647 3.664061 -8.08378894 3.33133376 -6.625 3 C-5.40683594 2.7215625 -5.40683594 2.7215625 -4.1640625 2.4375 C-2 2 -2 2 0 2 C0 1.34 0 0.68 0 0 Z " fill="#171618" transform="translate(309,400)"/>
<path d="M0 0 C2.69082872 0.17635452 5.32851446 0.61835921 8 1 C8 1.66 8 2.32 8 3 C4.7 3.66 1.4 4.32 -2 5 C-1.34 4.67 -0.68 4.34 0 4 C-0.33 3.01 -0.66 2.02 -1 1 C-0.67 0.67 -0.34 0.34 0 0 Z " fill="#171518" transform="translate(314,120)"/>
<path d="M0 0 C1.98 1.65 3.96 3.3 6 5 C4.25 6.125 4.25 6.125 2 7 C-0.25 6.125 -0.25 6.125 -2 5 C-1.34 3.35 -0.68 1.7 0 0 Z " fill="#0E0D0F" transform="translate(226,345)"/>
<path d="M0 0 C4 2 8 4 12 6 C8.01508155 7.32830615 6.59951452 6.23204404 2.8125 4.5625 C1.72582031 4.08941406 0.63914062 3.61632812 -0.48046875 3.12890625 C-1.31191406 2.75636719 -2.14335937 2.38382812 -3 2 C-2.01 1.34 -1.02 0.68 0 0 Z " fill="#1E1E1F" transform="translate(284,261)"/>
<path d="M0 0 C1.32 0.33 2.64 0.66 4 1 C3.814375 1.61875 3.62875 2.2375 3.4375 2.875 C2.76313824 5.04160178 2.76313824 5.04160178 4 7 C3.67 7.66 3.34 8.32 3 9 C3.66 9.33 4.32 9.66 5 10 C4.34 10.66 3.68 11.32 3 12 C2.49166409 10.75336669 1.99368855 9.50250613 1.5 8.25 C1.2215625 7.55390625 0.943125 6.8578125 0.65625 6.140625 C0 4 0 4 0 0 Z " fill="#161315" transform="translate(151,256)"/>
<path d="M0 0 C0.33 1.32 0.66 2.64 1 4 C0.34 4 -0.32 4 -1 4 C-0.67 4.99 -0.34 5.98 0 7 C-0.5775 7.103125 -1.155 7.20625 -1.75 7.3125 C-4.32049158 8.09792798 -5.93657284 9.30504197 -8 11 C-6.63629701 8.00779732 -5.05091917 5.70973471 -2.875 3.25 C-2.33617187 2.63640625 -1.79734375 2.0228125 -1.2421875 1.390625 C-0.62730469 0.70226562 -0.62730469 0.70226562 0 0 Z " fill="#1E1A1B" transform="translate(31,117)"/>
<path d="M0 0 C0 0.66 0 1.32 0 2 C2.31 2 4.62 2 7 2 C7 2.33 7 2.66 7 3 C0.93107371 3.25287193 -4.16200408 2.69832609 -10 1 C-9.38382813 0.84789062 -8.76765625 0.69578125 -8.1328125 0.5390625 C-6.70631393 0.1785189 -5.28656864 -0.20983275 -3.875 -0.625 C-2 -1 -2 -1 0 0 Z " fill="#1D191D" transform="translate(196,298)"/>
<path d="M0 0 C4.21912747 0.4794463 6.79663178 1.16625119 10 4 C8.02 4.33 6.04 4.66 4 5 C3.67 4.34 3.34 3.68 3 3 C2.34 3.66 1.68 4.32 1 5 C0.67 3.35 0.34 1.7 0 0 Z " fill="#1A1A1D" transform="translate(284,299)"/>
<path d="M0 0 C0.99 0.33 1.98 0.66 3 1 C0.97117094 3.94180214 -1.05819786 5.97117094 -4 8 C-4 4.09161134 -2.49432124 2.88405893 0 0 Z " fill="#0F0D10" transform="translate(205,299)"/>
<path d="M0 0 C4.75 0.75 4.75 0.75 7 3 C5.824375 3.1546875 5.824375 3.1546875 4.625 3.3125 C1.66954819 3.77595022 1.66954819 3.77595022 0 7 C-0.66 6.67 -1.32 6.34 -2 6 C-1.33333333 4 -0.66666667 2 0 0 Z " fill="#141315" transform="translate(259,289)"/>
<path d="M0 0 C1.65 0 3.3 0 5 0 C5 0.66 5 1.32 5 2 C4.01 2.495 4.01 2.495 3 3 C3.33 3.99 3.66 4.98 4 6 C3.01 7.485 3.01 7.485 2 9 C1.34 6.03 0.68 3.06 0 0 Z " fill="#0F0D0E" transform="translate(3,317)"/>
<path d="M0 0 C0.61875 0.33 1.2375 0.66 1.875 1 C3.91018344 2.14193235 3.91018344 2.14193235 6 2 C6 2.66 6 3.32 6 4 C7.32 4.66 8.64 5.32 10 6 C9.01 6.495 9.01 6.495 8 7 C5.8359375 6.00390625 5.8359375 6.00390625 3.375 4.5625 C2.55773437 4.08941406 1.74046875 3.61632812 0.8984375 3.12890625 C0.27195313 2.75636719 -0.35453125 2.38382812 -1 2 C-0.67 1.34 -0.34 0.68 0 0 Z " fill="#1B1A1B" transform="translate(173,290)"/>
<path d="M0 0 C-1.1446875 0.4021875 -1.1446875 0.4021875 -2.3125 0.8125 C-4.87380884 1.94424112 -6.19692938 2.91223401 -8 5 C-9.32 4.01 -10.64 3.02 -12 2 C-10.56656 1.46809459 -9.12804633 0.94984742 -7.6875 0.4375 C-6.48673828 0.00244141 -6.48673828 0.00244141 -5.26171875 -0.44140625 C-3 -1 -3 -1 0 0 Z " fill="#201F20" transform="translate(360,75)"/>
<path d="M0 0 C1.32 0.33 2.64 0.66 4 1 C5.125 5.75 5.125 5.75 4 8 C0 2.25 0 2.25 0 0 Z " fill="#100D10" transform="translate(195,360)"/>
<path d="M0 0 C1.69433918 3.0469629 2.49467112 5.82821466 3.125 9.25 C3.29257813 10.14203125 3.46015625 11.0340625 3.6328125 11.953125 C3.75398437 12.62859375 3.87515625 13.3040625 4 14 C1.68540132 12.18182999 1.04622813 11.24384457 0.48828125 8.30078125 C0.43027344 7.31464844 0.37226563 6.32851562 0.3125 5.3125 C0.24675781 4.31863281 0.18101562 3.32476562 0.11328125 2.30078125 C0.07589844 1.54152344 0.03851563 0.78226563 0 0 Z " fill="#242223" transform="translate(179,226)"/>
<path d="M0 0 C0.99 0.99 1.98 1.98 3 3 C2.34 4.32 1.68 5.64 1 7 C0.01 6.34 -0.98 5.68 -2 5 C-1.34 3.35 -0.68 1.7 0 0 Z " fill="#0D0B0C" transform="translate(161,273)"/>
<path d="M0 0 C0.33 0 0.66 0 1 0 C0.67 4.29 0.34 8.58 0 13 C-0.33 13 -0.66 13 -1 13 C-1.22151549 11.20991533 -1.42682213 9.41781838 -1.625 7.625 C-1.74101562 6.62726563 -1.85703125 5.62953125 -1.9765625 4.6015625 C-1.98429688 3.74304688 -1.99203125 2.88453125 -2 2 C-1.34 1.34 -0.68 0.68 0 0 Z " fill="#211D1D" transform="translate(203,127)"/>
<path d="M0 0 C0.66 0.99 1.32 1.98 2 3 C-0.46153846 6.81538462 -0.46153846 6.81538462 -3.1875 7.75 C-3.785625 7.8325 -4.38375 7.915 -5 8 C-5 6 -5 6 -3.0625 4 C-2.381875 3.34 -1.70125 2.68 -1 2 C-0.67 1.34 -0.34 0.68 0 0 Z " fill="#171718" transform="translate(302,362)"/>
<path d="M0 0 C0.66 0.33 1.32 0.66 2 1 C1.34 2.98 0.68 4.96 0 7 C-2.1385485 4.8614515 -2.42655063 3.86724686 -3 1 C-2.01 0.67 -1.02 0.34 0 0 Z " fill="#0F0D0E" transform="translate(10,329)"/>
<path d="M0 0 C0.33 0 0.66 0 1 0 C0.67 2.31 0.34 4.62 0 7 C-1.32 6.34 -2.64 5.68 -4 5 C-2.69254251 3.31295807 -1.35827971 1.64639965 0 0 Z " fill="#0C0B0B" transform="translate(471,234)"/>
<path d="M0 0 C3.465 1.485 3.465 1.485 7 3 C6.67 3.99 6.34 4.98 6 6 C3.37812506 4.95125002 2.20628639 4.35068687 0.75 1.875 C0.5025 1.25625 0.255 0.6375 0 0 Z " fill="#161515" transform="translate(105,198)"/>
</svg>
